Coordinates																																									
version=1																																									
nRows= 19																																									
nColumns=42																																									
inDegrees=yes																																									
																																									
"Units are S.I. units (second, meters, Newtons, ...)"																																									
Angles are in degrees.																																									
																																									
endheader																																									
time	pelvis_tx	pelvis_ty	pelvis_tz	pelvis_tilt	pelvis_list	pelvis_rotation	hip_flexion_r	hip_adduction_r	hip_rotation_r	knee_angle_r	ankle_angle_r	subtalar_angle_r	mtp_angle_r	hip_flexion_l	hip_adduction_l	hip_rotation_l	knee_angle_l	ankle_angle_l	subtalar_angle_l	mtp_angle_l	lumbar_extension	lumbar_bending	lumbar_rotation	ground_force_vx	ground_force_vy	ground_force_vz	ground_force_px	ground_force_py	ground_force_pz	ground_force_vx	ground_force_vy	ground_force_vz	ground_force_px	ground_force_py	ground_force_pz	ground_torque_x	ground_torque_y	ground_torque_z	ground_torque_x	ground_torque_y	ground_torque_z
0.76	0.423111	0.687642	-0.452159	-1.401562	24.061541	-94.556099	26.308301	1.769398	-3.848881	-47.823543	9.816319	0	0	56.258923	-3.971684	1.242484	-48.464755	14.258359	0	0	30.064509	4.581774	4.942583	0	0	0	0	0	0	-12.323109	155.711929	-9.970172	0.509477	-0.007342	-0.346519	0	0	0	-0.001739	0.17116	0.003587
0.77	0.425439	0.688785	-0.441689	-0.890734	22.695116	-94.407478	24.809631	0.512616	-4.247164	-48.987257	9.22308	0	0	53.937744	-3.1281	0.705689	-48.628184	14.649774	0	0	29.069271	3.966823	4.614671	0	0	0	0	0	0	-14.10331	183.794861	-12.826547	0.50934	-0.007466	-0.345107	0	0	0	-0.001743	0.171552	0.003595
0.78	0.427829	0.689728	-0.431488	-0.368608	21.489119	-94.293694	23.600629	-0.711213	-4.556927	-50.365603	8.617133	0	0	51.838615	-2.25971	0.248778	-48.851002	15.087285	0	0	28.197533	3.371938	4.334402	0	0	0	0	0	0	-15.825405	208.934708	-15.841522	0.509165	-0.007638	-0.343813	0	0	0	-0.00179	0.176149	0.003692
0.79	0.430215	0.69039	-0.421748	0.160052	20.531731	-94.228912	22.840457	-1.863964	-4.739248	-51.99433	8.02106	0	0	50.076973	-1.384986	-0.095428	-49.138006	15.572126	0	0	27.515052	2.812669	4.117378	0	0	0	0	0	0	-17.638636	230.374969	-18.461235	0.509006	-0.00778	-0.342821	0	0	0	-0.001949	0.191792	0.004019
0.8	0.432549	0.690784	-0.412528	0.687771	19.829477	-94.210159	22.555938	-2.928655	-4.793323	-53.853699	7.46991	0	0	48.664633	-0.52589	-0.33588	-49.479724	16.083694	0	0	27.024618	2.295558	3.959275	0	0	0	0	0	0	-19.672733	247.886261	-20.451347	0.508925	-0.007855	-0.342138	0	0	0	-0.002232	0.219665	0.004604
0.81	0.434804	0.690979	-0.403801	1.200385	19.34371	-94.221046	22.692175	-3.89678	-4.7443	-55.883764	7.000502	0	0	47.552638	0.29452	-0.498144	-49.857249	16.594319	0	0	26.695417	1.825795	3.838259	0	0	0	0	0	0	-21.956732	261.557465	-21.685314	0.508964	-0.007852	-0.341726	0	0	0	-0.002616	0.25743	0.005395
0.82	0.436954	0.691055	-0.395499	1.682415	19.022192	-94.243073	23.163487	-4.76326	-4.624699	-58.006468	6.642099	0	0	46.669067	1.054912	-0.613577	-50.246201	17.080944	0	0	26.487689	1.407057	3.726596	0	0	0	0	0	0	-24.391409	271.685913	-22.119469	0.509135	-0.007781	-0.341528	0	0	0	-0.003039	0.299052	0.006267
0.83	0.438979	0.691087	-0.387544	2.123546	18.814346	-94.263527	23.882788	-5.527547	-4.463333	-60.142917	6.411588	0	0	45.939477	1.738326	-0.718238	-50.620294	17.529621	0	0	26.363962	1.039202	3.603119	0	0	0	0	0	0	-26.772097	278.719269	-21.804783	0.509421	-0.007654	-0.341476	0	0	0	-0.003416	0.336105	0.007044
0.84	0.440852	0.691131	-0.379865	2.518345	18.679575	-94.277794	24.777751	-6.190296	-4.280059	-62.223624	6.312547	0	0	45.300441	2.330644	-0.849636	-50.956548	17.935498	0	0	26.294697	0.72078	3.458958	0	0	0	0	0	0	-28.864002	283.199493	-20.854248	0.509779	-0.007489	-0.341504	0	0	0	-0.003667	0.360775	0.007561
0.85	0.442544	0.691224	-0.372407	2.860316	18.590197	-94.288345	25.796346	-6.745306	-4.083701	-64.192399	6.336158	0	0	44.706887	2.8147	-1.040797	-51.241039	18.301439	0	0	26.259437	0.454171	3.295138	0	0	0	0	0	0	-30.487381	285.698853	-19.40048	0.51015	-0.0073	-0.341557	0	0	0	-0.003739	0.367937	0.007711
0.86	0.444029	0.691388	-0.365131	3.138707	18.527636	-94.296806	26.901158	-7.181305	-3.880539	-66.006798	6.463892	0	0	44.12947	3.174543	-1.307492	-51.470072	18.634938	0	0	26.242808	0.245805	3.112901	0	0	0	0	0	0	-31.568007	286.770386	-17.576794	0.51047	-0.007096	-0.341599	0	0	0	-0.00362	0.356229	0.007465
0.87	0.44531	0.69163	-0.358011	3.341666	18.478542	-94.293396	28.062563	-7.49439	-3.687882	-67.638209	6.672537	0	0	43.549307	3.410221	-1.633933	-51.645888	18.943168	0	0	26.231748	0.101201	2.904008	0	0	0	0	0	0	-32.141819	286.885468	-15.508101	0.510686	-0.006889	-0.341599	0	0	0	-0.003336	0.32828	0.00688
0.88	0.446421	0.691949	-0.351031	3.46306	18.434906	-94.259399	29.259704	-7.695362	-3.532485	-69.07231	6.939362	0	0	42.956361	3.542741	-1.978217	-51.772042	19.229747	0	0	26.216964	0.020517	2.655988	0	0	0	0	0	0	-32.316692	286.341492	-13.306611	0.510778	-0.00669	-0.341547	0	0	0	-0.002942	0.289447	0.006066
0.89	0.447403	0.692333	-0.344179	3.509593	18.392694	-94.181129	30.482557	-7.808836	-3.43503	-70.308697	7.245123	0	0	42.346538	3.606598	-2.295591	-51.850514	19.494579	0	0	26.192888	-0.004919	2.365584	0	0	0	0	0	0	-32.227821	285.24939	-11.074316	0.510751	-0.006511	-0.341453	0	0	0	-0.002509	0.246889	0.005174
0.9	0.448285	0.692768	-0.337451	3.501445	18.348925	-94.0578	31.729295	-7.867756	-3.40086	-71.357445	7.575268	0	0	41.717744	3.640185	-2.554968	-51.881219	19.73533	0	0	26.155472	0.006944	2.041382	0	0	0	0	0	0	-31.999281	283.607147	-8.893761	0.510619	-0.006358	-0.341335	0	0	0	-0.002104	0.207033	0.004339
0.91	0.44908	0.693238	-0.330845	3.461375	18.302427	-93.899208	33.003156	-7.899999	-3.422436	-72.232474	7.91935	0	0	41.071311	3.672521	-2.74138	-51.865902	19.950588	0	0	26.102399	0.037356	1.697487	0	0	0	0	0	0	-31.721176	281.370789	-6.822242	0.510411	-0.00623	-0.341208	0	0	0	-0.001771	0.17428	0.003652
0.92	0.449785	0.693724	-0.324366	3.405036	18.255871	-93.720436	34.310656	-7.91954	-3.48594	-72.946229	8.269764	0	0	40.414434	3.715418	-2.852678	-51.810953	20.142187	0	0	26.034612	0.074594	1.345394	0	0	0	0	0	0	-31.439299	278.535156	-4.903749	0.510161	-0.006126	-0.34108	0	0	0	-0.001527	0.150235	0.003148
0.93	0.450394	0.694205	-0.318015	3.342245	18.213728	-93.535439	35.657334	-7.933854	-3.578677	-73.508203	8.622224	0	0	39.756506	3.770922	-2.894342	-51.724381	20.31432	0	0	25.955279	0.111819	0.986227	0	0	0	0	0	0	-31.165106	275.175751	-3.171993	0.509891	-0.006042	-0.340948	0	0	0	-0.001356	0.133421	0.002796
0.94	0.450912	0.694666	-0.311788	3.276116	18.178572	-93.349625	37.041038	-7.949586	-3.697456	-73.923185	8.976044	0	0	39.104148	3.837896	-2.870905	-51.613936	20.473069	0	0	25.866835	0.146437	0.60762	0	0	0	0	0	0	-30.891546	271.458374	-1.643705	0.509615	-0.005973	-0.340809	0	0	0	-0.001224	0.120448	0.002524
